<mxfile host="app.diagrams.net" modified="2022-09-28T20:20:31.943Z" agent="5.0 (Macintosh; Intel Mac OS X 10_15_7) AppleWebKit/605.1.15 (KHTML, like Gecko) Version/15.3 Safari/605.1.15" etag="0uaPIfenVLcIkxx36T-8" version="20.3.7" type="github">
  <diagram id="_aQSk68fNOLD1SiQQVQj" name="Page-1">
    <mxGraphModel dx="770" dy="573" grid="1" gridSize="10" guides="0" tooltips="1" connect="0" arrows="0" fold="1" page="1" pageScale="1" pageWidth="900" pageHeight="500" math="0" shadow="0">
      <root>
        <mxCell id="0" />
        <mxCell id="1" parent="0" />
        <mxCell id="P1x7vm0chefwzOuEZskG-180" value="&lt;span style=&quot;font-size: 12px&quot;&gt;&lt;b style=&quot;font-size: 12px&quot;&gt;Note 1&lt;/b&gt;: If a port is a designated port, leave the &quot;DP&quot; text next to it; otherwise, delete the &quot;DP&quot;.&lt;br style=&quot;font-size: 12px&quot;&gt;&lt;/span&gt;&lt;br style=&quot;font-size: 12px&quot;&gt;&lt;span style=&quot;font-size: 12px&quot;&gt;&lt;b style=&quot;font-size: 12px&quot;&gt;Note 2&lt;/b&gt;: If a port is a root port, leave the &quot;RP&quot; text next to it; otherwise, delete the &quot;RP&quot;.&lt;br style=&quot;font-size: 12px&quot;&gt;&lt;/span&gt;&lt;br style=&quot;font-size: 12px&quot;&gt;&lt;b style=&quot;font-size: 12px&quot;&gt;Note 3&lt;/b&gt;: If a port is in the forwarding state, leave the&lt;br style=&quot;font-size: 12px&quot;&gt;next to it; if it is blocked, replace it with a&amp;nbsp;&lt;br style=&quot;font-size: 12px&quot;&gt;." style="text;html=1;strokeColor=none;fillColor=none;align=left;verticalAlign=middle;whiteSpace=wrap;rounded=0;fontSize=12;labelBorderColor=#FF548D;spacingTop=2;spacingBottom=2;spacingRight=2;spacingLeft=2;" parent="1" vertex="1">
          <mxGeometry x="558" y="383" width="330" height="90" as="geometry" />
        </mxCell>
        <mxCell id="P1x7vm0chefwzOuEZskG-14" style="edgeStyle=orthogonalEdgeStyle;rounded=0;orthogonalLoop=1;jettySize=auto;html=1;exitX=0;exitY=0.5;exitDx=0;exitDy=0;exitPerimeter=0;entryX=0.5;entryY=0;entryDx=0;entryDy=0;entryPerimeter=0;endArrow=none;endFill=0;" parent="1" target="P1x7vm0chefwzOuEZskG-3" edge="1">
          <mxGeometry relative="1" as="geometry">
            <mxPoint x="418" y="100" as="sourcePoint" />
          </mxGeometry>
        </mxCell>
        <mxCell id="P1x7vm0chefwzOuEZskG-15" style="edgeStyle=orthogonalEdgeStyle;rounded=0;orthogonalLoop=1;jettySize=auto;html=1;exitX=1;exitY=0.5;exitDx=0;exitDy=0;exitPerimeter=0;entryX=0.5;entryY=0;entryDx=0;entryDy=0;entryPerimeter=0;endArrow=none;endFill=0;" parent="1" target="P1x7vm0chefwzOuEZskG-4" edge="1">
          <mxGeometry relative="1" as="geometry">
            <mxPoint x="468" y="100" as="sourcePoint" />
          </mxGeometry>
        </mxCell>
        <mxCell id="P1x7vm0chefwzOuEZskG-2" value="" style="points=[[0.015,0.015,0],[0.985,0.015,0],[0.985,0.985,0],[0.015,0.985,0],[0.25,0,0],[0.5,0,0],[0.75,0,0],[1,0.25,0],[1,0.5,0],[1,0.75,0],[0.75,1,0],[0.5,1,0],[0.25,1,0],[0,0.75,0],[0,0.5,0],[0,0.25,0]];verticalLabelPosition=bottom;html=1;verticalAlign=top;aspect=fixed;align=center;pointerEvents=1;shape=mxgraph.cisco19.rect;prIcon=l2_switch;fillColor=#FAFAFA;strokeColor=#005073;" parent="1" vertex="1">
          <mxGeometry x="416" y="79" width="50" height="50" as="geometry" />
        </mxCell>
        <mxCell id="P1x7vm0chefwzOuEZskG-16" style="edgeStyle=orthogonalEdgeStyle;rounded=0;orthogonalLoop=1;jettySize=auto;html=1;exitX=0.5;exitY=1;exitDx=0;exitDy=0;exitPerimeter=0;entryX=0;entryY=0.5;entryDx=0;entryDy=0;entryPerimeter=0;endArrow=none;endFill=0;" parent="1" source="P1x7vm0chefwzOuEZskG-3" target="P1x7vm0chefwzOuEZskG-5" edge="1">
          <mxGeometry relative="1" as="geometry" />
        </mxCell>
        <mxCell id="P1x7vm0chefwzOuEZskG-3" value="" style="points=[[0.015,0.015,0],[0.985,0.015,0],[0.985,0.985,0],[0.015,0.985,0],[0.25,0,0],[0.5,0,0],[0.75,0,0],[1,0.25,0],[1,0.5,0],[1,0.75,0],[0.75,1,0],[0.5,1,0],[0.25,1,0],[0,0.75,0],[0,0.5,0],[0,0.25,0]];verticalLabelPosition=bottom;html=1;verticalAlign=top;aspect=fixed;align=center;pointerEvents=1;shape=mxgraph.cisco19.rect;prIcon=l2_switch;fillColor=#FAFAFA;strokeColor=#005073;" parent="1" vertex="1">
          <mxGeometry x="278" y="185" width="50" height="50" as="geometry" />
        </mxCell>
        <mxCell id="P1x7vm0chefwzOuEZskG-17" style="edgeStyle=orthogonalEdgeStyle;rounded=0;orthogonalLoop=1;jettySize=auto;html=1;exitX=0.5;exitY=1;exitDx=0;exitDy=0;exitPerimeter=0;entryX=1;entryY=0.5;entryDx=0;entryDy=0;entryPerimeter=0;endArrow=none;endFill=0;" parent="1" source="P1x7vm0chefwzOuEZskG-4" target="P1x7vm0chefwzOuEZskG-5" edge="1">
          <mxGeometry relative="1" as="geometry" />
        </mxCell>
        <mxCell id="P1x7vm0chefwzOuEZskG-4" value="" style="points=[[0.015,0.015,0],[0.985,0.015,0],[0.985,0.985,0],[0.015,0.985,0],[0.25,0,0],[0.5,0,0],[0.75,0,0],[1,0.25,0],[1,0.5,0],[1,0.75,0],[0.75,1,0],[0.5,1,0],[0.25,1,0],[0,0.75,0],[0,0.5,0],[0,0.25,0]];verticalLabelPosition=bottom;html=1;verticalAlign=top;aspect=fixed;align=center;pointerEvents=1;shape=mxgraph.cisco19.rect;prIcon=l2_switch;fillColor=#FAFAFA;strokeColor=#005073;" parent="1" vertex="1">
          <mxGeometry x="578" y="186" width="50" height="50" as="geometry" />
        </mxCell>
        <mxCell id="P1x7vm0chefwzOuEZskG-5" value="" style="points=[[0.015,0.015,0],[0.985,0.015,0],[0.985,0.985,0],[0.015,0.985,0],[0.25,0,0],[0.5,0,0],[0.75,0,0],[1,0.25,0],[1,0.5,0],[1,0.75,0],[0.75,1,0],[0.5,1,0],[0.25,1,0],[0,0.75,0],[0,0.5,0],[0,0.25,0]];verticalLabelPosition=bottom;html=1;verticalAlign=top;aspect=fixed;align=center;pointerEvents=1;shape=mxgraph.cisco19.rect;prIcon=l2_switch;fillColor=#FAFAFA;strokeColor=#005073;" parent="1" vertex="1">
          <mxGeometry x="416" y="318" width="50" height="50" as="geometry" />
        </mxCell>
        <mxCell id="P1x7vm0chefwzOuEZskG-12" value="Root bridge" style="text;html=1;align=center;verticalAlign=middle;whiteSpace=wrap;rounded=0;fontStyle=1;" parent="1" vertex="1">
          <mxGeometry x="381" y="10" width="120" height="20" as="geometry" />
        </mxCell>
        <mxCell id="P1x7vm0chefwzOuEZskG-50" value="Port ID" style="text;html=1;strokeColor=none;fillColor=none;align=center;verticalAlign=middle;whiteSpace=wrap;rounded=0;" parent="1" vertex="1">
          <mxGeometry x="377" y="111" width="40" height="20" as="geometry" />
        </mxCell>
        <mxCell id="P1x7vm0chefwzOuEZskG-51" value="1" style="rounded=0;whiteSpace=wrap;html=1;fillColor=#fff2cc;strokeColor=#d6b656;" parent="1" vertex="1">
          <mxGeometry x="378" y="91" width="37" height="20" as="geometry" />
        </mxCell>
        <mxCell id="P1x7vm0chefwzOuEZskG-54" value="Port ID" style="text;html=1;strokeColor=none;fillColor=none;align=center;verticalAlign=middle;whiteSpace=wrap;rounded=0;" parent="1" vertex="1">
          <mxGeometry x="626" y="164" width="40" height="20" as="geometry" />
        </mxCell>
        <mxCell id="P1x7vm0chefwzOuEZskG-55" value="1" style="rounded=0;whiteSpace=wrap;html=1;fillColor=#fff2cc;strokeColor=#d6b656;" parent="1" vertex="1">
          <mxGeometry x="585" y="164" width="37" height="20" as="geometry" />
        </mxCell>
        <mxCell id="P1x7vm0chefwzOuEZskG-56" value="Port ID" style="text;html=1;strokeColor=none;fillColor=none;align=center;verticalAlign=middle;whiteSpace=wrap;rounded=0;" parent="1" vertex="1">
          <mxGeometry x="626" y="238" width="40" height="20" as="geometry" />
        </mxCell>
        <mxCell id="P1x7vm0chefwzOuEZskG-57" value="2" style="rounded=0;whiteSpace=wrap;html=1;fillColor=#fff2cc;strokeColor=#d6b656;" parent="1" vertex="1">
          <mxGeometry x="585" y="238" width="37" height="20" as="geometry" />
        </mxCell>
        <mxCell id="P1x7vm0chefwzOuEZskG-62" value="Port ID" style="text;html=1;strokeColor=none;fillColor=none;align=center;verticalAlign=middle;whiteSpace=wrap;rounded=0;" parent="1" vertex="1">
          <mxGeometry x="242" y="237" width="40" height="20" as="geometry" />
        </mxCell>
        <mxCell id="P1x7vm0chefwzOuEZskG-63" value="&lt;font style=&quot;font-size: 12px;&quot;&gt;1&lt;/font&gt;" style="rounded=0;whiteSpace=wrap;html=1;fillColor=#fff2cc;strokeColor=#d6b656;" parent="1" vertex="1">
          <mxGeometry x="285" y="237" width="37" height="20" as="geometry" />
        </mxCell>
        <mxCell id="P1x7vm0chefwzOuEZskG-64" value="Port ID" style="text;html=1;strokeColor=none;fillColor=none;align=center;verticalAlign=middle;whiteSpace=wrap;rounded=0;" parent="1" vertex="1">
          <mxGeometry x="243" y="163" width="40" height="20" as="geometry" />
        </mxCell>
        <mxCell id="P1x7vm0chefwzOuEZskG-65" value="2" style="rounded=0;whiteSpace=wrap;html=1;fillColor=#fff2cc;strokeColor=#d6b656;" parent="1" vertex="1">
          <mxGeometry x="286" y="163" width="37" height="20" as="geometry" />
        </mxCell>
        <mxCell id="P1x7vm0chefwzOuEZskG-66" value="&lt;font&gt;DP&lt;/font&gt;" style="text;html=1;strokeColor=none;fillColor=none;align=center;verticalAlign=middle;whiteSpace=wrap;rounded=0;labelBackgroundColor=#ffffff;fontColor=#00CC00;fontStyle=1" parent="1" vertex="1">
          <mxGeometry x="386" y="131" width="20" height="20" as="geometry" />
        </mxCell>
        <mxCell id="P1x7vm0chefwzOuEZskG-67" value="Port ID" style="text;html=1;strokeColor=none;fillColor=none;align=center;verticalAlign=middle;whiteSpace=wrap;rounded=0;" parent="1" vertex="1">
          <mxGeometry x="467" y="111" width="40" height="20" as="geometry" />
        </mxCell>
        <mxCell id="P1x7vm0chefwzOuEZskG-68" value="2" style="rounded=0;whiteSpace=wrap;html=1;fillColor=#fff2cc;strokeColor=#d6b656;" parent="1" vertex="1">
          <mxGeometry x="468" y="91" width="37" height="20" as="geometry" />
        </mxCell>
        <mxCell id="P1x7vm0chefwzOuEZskG-76" value="1" style="rounded=0;whiteSpace=wrap;html=1;fillColor=#fff2cc;strokeColor=#d6b656;" parent="1" vertex="1">
          <mxGeometry x="378" y="333" width="37" height="20" as="geometry" />
        </mxCell>
        <mxCell id="P1x7vm0chefwzOuEZskG-77" value="2" style="rounded=0;whiteSpace=wrap;html=1;fillColor=#fff2cc;strokeColor=#d6b656;" parent="1" vertex="1">
          <mxGeometry x="468" y="333" width="37" height="20" as="geometry" />
        </mxCell>
        <mxCell id="P1x7vm0chefwzOuEZskG-78" value="Port ID" style="text;html=1;strokeColor=none;fillColor=none;align=center;verticalAlign=middle;whiteSpace=wrap;rounded=0;" parent="1" vertex="1">
          <mxGeometry x="376" y="313" width="40" height="20" as="geometry" />
        </mxCell>
        <mxCell id="P1x7vm0chefwzOuEZskG-79" value="Port ID" style="text;html=1;strokeColor=none;fillColor=none;align=center;verticalAlign=middle;whiteSpace=wrap;rounded=0;" parent="1" vertex="1">
          <mxGeometry x="468" y="313" width="40" height="20" as="geometry" />
        </mxCell>
        <mxCell id="P1x7vm0chefwzOuEZskG-31" value="Hostname" style="text;html=1;strokeColor=none;fillColor=none;align=center;verticalAlign=middle;whiteSpace=wrap;rounded=0;" parent="1" vertex="1">
          <mxGeometry x="811" y="188" width="60" height="20" as="geometry" />
        </mxCell>
        <mxCell id="P1x7vm0chefwzOuEZskG-32" value="Bridge ID" style="text;html=1;strokeColor=none;fillColor=none;align=center;verticalAlign=middle;whiteSpace=wrap;rounded=0;" parent="1" vertex="1">
          <mxGeometry x="811" y="212" width="60" height="20" as="geometry" />
        </mxCell>
        <mxCell id="P1x7vm0chefwzOuEZskG-93" value="&lt;font&gt;DP&lt;/font&gt;" style="text;html=1;strokeColor=none;fillColor=none;align=center;verticalAlign=middle;whiteSpace=wrap;rounded=0;labelBackgroundColor=#ffffff;fontColor=#00CC00;fontStyle=1" parent="1" vertex="1">
          <mxGeometry x="475" y="129" width="20" height="20" as="geometry" />
        </mxCell>
        <mxCell id="P1x7vm0chefwzOuEZskG-99" value="&lt;font&gt;DP&lt;/font&gt;" style="text;html=1;strokeColor=none;fillColor=none;align=center;verticalAlign=middle;whiteSpace=wrap;rounded=0;labelBackgroundColor=#ffffff;fontColor=#00CC00;fontStyle=1" parent="1" vertex="1">
          <mxGeometry x="467" y="295" width="20" height="20" as="geometry" />
        </mxCell>
        <mxCell id="P1x7vm0chefwzOuEZskG-100" value="&lt;font&gt;RP&lt;/font&gt;" style="text;html=1;strokeColor=none;fillColor=none;align=center;verticalAlign=middle;whiteSpace=wrap;rounded=0;labelBorderColor=none;fontColor=#4C0099;fontStyle=1" parent="1" vertex="1">
          <mxGeometry x="486" y="295" width="25" height="20" as="geometry" />
        </mxCell>
        <mxCell id="P1x7vm0chefwzOuEZskG-103" value="&lt;font&gt;RP&lt;/font&gt;" style="text;html=1;strokeColor=none;fillColor=none;align=left;verticalAlign=middle;whiteSpace=wrap;rounded=0;labelBorderColor=none;fontColor=#4C0099;fontStyle=1" parent="1" vertex="1">
          <mxGeometry x="328" y="169" width="25" height="20" as="geometry" />
        </mxCell>
        <mxCell id="P1x7vm0chefwzOuEZskG-106" value="&lt;font&gt;DP&lt;/font&gt;" style="text;html=1;strokeColor=none;fillColor=none;align=left;verticalAlign=middle;whiteSpace=wrap;rounded=0;labelBackgroundColor=#ffffff;fontStyle=1;fontColor=#00CC00;" parent="1" vertex="1">
          <mxGeometry x="328" y="231" width="20" height="20" as="geometry" />
        </mxCell>
        <mxCell id="P1x7vm0chefwzOuEZskG-108" value="&lt;font&gt;DP&lt;/font&gt;" style="text;html=1;strokeColor=none;fillColor=none;align=left;verticalAlign=middle;whiteSpace=wrap;rounded=0;labelBackgroundColor=#ffffff;fontColor=#00CC00;fontStyle=1" parent="1" vertex="1">
          <mxGeometry x="558" y="230" width="20" height="20" as="geometry" />
        </mxCell>
        <mxCell id="P1x7vm0chefwzOuEZskG-109" value="&lt;font&gt;RP&lt;/font&gt;" style="text;html=1;strokeColor=none;fillColor=none;align=left;verticalAlign=middle;whiteSpace=wrap;rounded=0;labelBorderColor=none;fontColor=#4C0099;fontStyle=1" parent="1" vertex="1">
          <mxGeometry x="559" y="170" width="25" height="20" as="geometry" />
        </mxCell>
        <mxCell id="P1x7vm0chefwzOuEZskG-111" value="bridge 2" style="rounded=0;whiteSpace=wrap;html=1;fillColor=#ffe6cc;strokeColor=#d79b00;fontFamily=Courier New;fontSize=10;align=left;" parent="1" vertex="1">
          <mxGeometry x="358" y="30" width="172" height="20" as="geometry" />
        </mxCell>
        <mxCell id="P1x7vm0chefwzOuEZskG-112" value="7000.026cb79d0345" style="rounded=0;whiteSpace=wrap;html=1;fillColor=#ffe6cc;strokeColor=#d79b00;fontFamily=Courier New;fontSize=10;align=left;" parent="1" vertex="1">
          <mxGeometry x="358" y="54" width="172" height="20" as="geometry" />
        </mxCell>
        <mxCell id="P1x7vm0chefwzOuEZskG-113" value="Hostname" style="text;html=1;strokeColor=none;fillColor=none;align=center;verticalAlign=middle;whiteSpace=wrap;rounded=0;" parent="1" vertex="1">
          <mxGeometry x="298" y="30" width="60" height="20" as="geometry" />
        </mxCell>
        <mxCell id="P1x7vm0chefwzOuEZskG-114" value="Bridge ID" style="text;html=1;strokeColor=none;fillColor=none;align=center;verticalAlign=middle;whiteSpace=wrap;rounded=0;" parent="1" vertex="1">
          <mxGeometry x="298" y="54" width="60" height="20" as="geometry" />
        </mxCell>
        <mxCell id="P1x7vm0chefwzOuEZskG-115" value="bridge-4" style="rounded=0;whiteSpace=wrap;html=1;fillColor=#ffe6cc;strokeColor=#d79b00;fontSize=10;align=left;fontFamily=Courier New;" parent="1" vertex="1">
          <mxGeometry x="357" y="373" width="172" height="20" as="geometry" />
        </mxCell>
        <mxCell id="P1x7vm0chefwzOuEZskG-116" value="8000.024a81663268" style="rounded=0;whiteSpace=wrap;html=1;fillColor=#ffe6cc;strokeColor=#d79b00;fontFamily=Courier New;align=left;fontSize=10;" parent="1" vertex="1">
          <mxGeometry x="357" y="397" width="172" height="20" as="geometry" />
        </mxCell>
        <mxCell id="P1x7vm0chefwzOuEZskG-117" value="Hostname" style="text;html=1;strokeColor=none;fillColor=none;align=center;verticalAlign=middle;whiteSpace=wrap;rounded=0;" parent="1" vertex="1">
          <mxGeometry x="297" y="373" width="60" height="20" as="geometry" />
        </mxCell>
        <mxCell id="P1x7vm0chefwzOuEZskG-118" value="Bridge ID" style="text;html=1;strokeColor=none;fillColor=none;align=center;verticalAlign=middle;whiteSpace=wrap;rounded=0;" parent="1" vertex="1">
          <mxGeometry x="297" y="397" width="60" height="20" as="geometry" />
        </mxCell>
        <mxCell id="P1x7vm0chefwzOuEZskG-119" value="bridge-1" style="rounded=0;whiteSpace=wrap;html=1;fillColor=#ffe6cc;strokeColor=#d79b00;align=left;fontSize=10;fontFamily=Courier New;" parent="1" vertex="1">
          <mxGeometry x="635" y="190" width="172" height="20" as="geometry" />
        </mxCell>
        <mxCell id="P1x7vm0chefwzOuEZskG-120" value="8000.02582294663e" style="rounded=0;whiteSpace=wrap;html=1;fillColor=#ffe6cc;strokeColor=#d79b00;align=left;fontFamily=Courier New;fontSize=10;" parent="1" vertex="1">
          <mxGeometry x="635" y="214" width="172" height="20" as="geometry" />
        </mxCell>
        <mxCell id="P1x7vm0chefwzOuEZskG-121" value="2-3" style="rounded=0;whiteSpace=wrap;html=1;fillColor=#fff2cc;strokeColor=#d6b656;" parent="1" vertex="1">
          <mxGeometry x="258" y="99.99999999999994" width="37" height="20" as="geometry" />
        </mxCell>
        <mxCell id="P1x7vm0chefwzOuEZskG-124" value="Network segment" style="text;html=1;strokeColor=none;fillColor=none;align=center;verticalAlign=middle;whiteSpace=wrap;rounded=0;" parent="1" vertex="1">
          <mxGeometry x="198" y="97" width="50" height="20" as="geometry" />
        </mxCell>
        <mxCell id="P1x7vm0chefwzOuEZskG-128" value="Network segment" style="text;html=1;strokeColor=none;fillColor=none;align=center;verticalAlign=middle;whiteSpace=wrap;rounded=0;" parent="1" vertex="1">
          <mxGeometry x="653" y="97.00000000000009" width="40" height="20" as="geometry" />
        </mxCell>
        <mxCell id="P1x7vm0chefwzOuEZskG-130" value="Network segment" style="text;html=1;strokeColor=none;fillColor=none;align=center;verticalAlign=middle;whiteSpace=wrap;rounded=0;" parent="1" vertex="1">
          <mxGeometry x="653" y="280" width="40" height="20" as="geometry" />
        </mxCell>
        <mxCell id="P1x7vm0chefwzOuEZskG-25" value="&lt;font style=&quot;font-size: 10px;&quot; face=&quot;Courier New&quot;&gt;bridge 3&lt;/font&gt;" style="rounded=0;whiteSpace=wrap;html=1;fillColor=#ffe6cc;strokeColor=#d79b00;" parent="1" vertex="1">
          <mxGeometry x="98" y="188" width="172" height="20" as="geometry" />
        </mxCell>
        <mxCell id="P1x7vm0chefwzOuEZskG-26" value="&lt;span style=&quot;text-align: center;&quot;&gt;&lt;font style=&quot;font-size: 10px;&quot;&gt;8000.02b80bdf7d4b&lt;/font&gt;&lt;/span&gt;" style="rounded=0;whiteSpace=wrap;html=1;fillColor=#ffe6cc;strokeColor=#d79b00;fontFamily=Courier New;fontSize=10;align=left;" parent="1" vertex="1">
          <mxGeometry x="98" y="212" width="172" height="20" as="geometry" />
        </mxCell>
        <mxCell id="P1x7vm0chefwzOuEZskG-27" value="Hostname" style="text;html=1;strokeColor=none;fillColor=none;align=center;verticalAlign=middle;whiteSpace=wrap;rounded=0;" parent="1" vertex="1">
          <mxGeometry x="38" y="188" width="60" height="20" as="geometry" />
        </mxCell>
        <mxCell id="P1x7vm0chefwzOuEZskG-28" value="Bridge ID" style="text;html=1;strokeColor=none;fillColor=none;align=center;verticalAlign=middle;whiteSpace=wrap;rounded=0;" parent="1" vertex="1">
          <mxGeometry x="38" y="212" width="60" height="20" as="geometry" />
        </mxCell>
        <mxCell id="P1x7vm0chefwzOuEZskG-134" value="7000.026cb79d0345,1" style="rounded=0;whiteSpace=wrap;html=1;fillColor=#fff2cc;strokeColor=#d6b656;fontFamily=Courier New;fontSize=10;align=left;" parent="1" vertex="1">
          <mxGeometry x="98" y="126" width="197" height="20" as="geometry" />
        </mxCell>
        <mxCell id="P1x7vm0chefwzOuEZskG-135" value="Designated bridge ID &amp;amp; port" style="text;html=1;strokeColor=none;fillColor=none;align=center;verticalAlign=middle;whiteSpace=wrap;rounded=0;" parent="1" vertex="1">
          <mxGeometry x="8" y="125" width="90" height="20" as="geometry" />
        </mxCell>
        <mxCell id="P1x7vm0chefwzOuEZskG-136" value="3-4" style="rounded=0;whiteSpace=wrap;html=1;fillColor=#fff2cc;strokeColor=#d6b656;" parent="1" vertex="1">
          <mxGeometry x="258" y="285" width="37" height="20" as="geometry" />
        </mxCell>
        <mxCell id="P1x7vm0chefwzOuEZskG-137" value="Network segment" style="text;html=1;strokeColor=none;fillColor=none;align=center;verticalAlign=middle;whiteSpace=wrap;rounded=0;" parent="1" vertex="1">
          <mxGeometry x="198" y="280" width="50" height="20" as="geometry" />
        </mxCell>
        <mxCell id="P1x7vm0chefwzOuEZskG-138" value="8000.02b80bdf7d4b, 1" style="rounded=0;whiteSpace=wrap;html=1;fillColor=#fff2cc;strokeColor=#d6b656;fontFamily=Courier New;fontSize=10;align=left;" parent="1" vertex="1">
          <mxGeometry x="98" y="309" width="197" height="20" as="geometry" />
        </mxCell>
        <mxCell id="P1x7vm0chefwzOuEZskG-139" value="Designated bridge ID &amp;amp; port" style="text;html=1;strokeColor=none;fillColor=none;align=center;verticalAlign=middle;whiteSpace=wrap;rounded=0;" parent="1" vertex="1">
          <mxGeometry x="8" y="309" width="90" height="20" as="geometry" />
        </mxCell>
        <mxCell id="P1x7vm0chefwzOuEZskG-140" value="1-4" style="rounded=0;whiteSpace=wrap;html=1;fillColor=#fff2cc;strokeColor=#d6b656;" parent="1" vertex="1">
          <mxGeometry x="608" y="285" width="37" height="20" as="geometry" />
        </mxCell>
        <mxCell id="P1x7vm0chefwzOuEZskG-141" value="2-1" style="rounded=0;whiteSpace=wrap;html=1;fillColor=#fff2cc;strokeColor=#d6b656;" parent="1" vertex="1">
          <mxGeometry x="608" y="100" width="37" height="20" as="geometry" />
        </mxCell>
        <mxCell id="P1x7vm0chefwzOuEZskG-142" value="8000.02582294663e, 2" style="rounded=0;whiteSpace=wrap;html=1;fillColor=#fff2cc;strokeColor=#d6b656;fontFamily=Courier New;fontSize=10;align=left;" parent="1" vertex="1">
          <mxGeometry x="608" y="309" width="197" height="20" as="geometry" />
        </mxCell>
        <mxCell id="P1x7vm0chefwzOuEZskG-143" value="7000.026cb79d0345,2" style="rounded=0;whiteSpace=wrap;html=1;fillColor=#fff2cc;strokeColor=#d6b656;fontFamily=Courier New;fontSize=10;align=left;" parent="1" vertex="1">
          <mxGeometry x="608" y="126.00000000000003" width="197" height="20" as="geometry" />
        </mxCell>
        <mxCell id="P1x7vm0chefwzOuEZskG-144" value="Designated bridge ID &amp;amp; port" style="text;html=1;strokeColor=none;fillColor=none;align=center;verticalAlign=middle;whiteSpace=wrap;rounded=0;" parent="1" vertex="1">
          <mxGeometry x="807" y="125" width="91" height="20" as="geometry" />
        </mxCell>
        <mxCell id="P1x7vm0chefwzOuEZskG-145" value="Designated bridge ID &amp;amp; port" style="text;html=1;strokeColor=none;fillColor=none;align=center;verticalAlign=middle;whiteSpace=wrap;rounded=0;" parent="1" vertex="1">
          <mxGeometry x="807" y="309" width="91" height="20" as="geometry" />
        </mxCell>
        <mxCell id="P1x7vm0chefwzOuEZskG-146" value="Cost" style="text;html=1;strokeColor=none;fillColor=none;align=center;verticalAlign=middle;whiteSpace=wrap;rounded=0;" parent="1" vertex="1">
          <mxGeometry x="328" y="190" width="40" height="20" as="geometry" />
        </mxCell>
        <mxCell id="P1x7vm0chefwzOuEZskG-149" value="Cost" style="text;html=1;strokeColor=none;fillColor=none;align=center;verticalAlign=middle;whiteSpace=wrap;rounded=0;" parent="1" vertex="1">
          <mxGeometry x="425" y="270" width="40" height="20" as="geometry" />
        </mxCell>
        <mxCell id="P1x7vm0chefwzOuEZskG-150" value="200" style="rounded=0;whiteSpace=wrap;html=1;fillColor=#ffe6cc;strokeColor=#d79b00;" parent="1" vertex="1">
          <mxGeometry x="426.5" y="290" width="37" height="20" as="geometry" />
        </mxCell>
        <mxCell id="P1x7vm0chefwzOuEZskG-151" value="0" style="rounded=0;whiteSpace=wrap;html=1;fillColor=#ffe6cc;strokeColor=#d79b00;" parent="1" vertex="1">
          <mxGeometry x="426.5" y="140" width="37" height="20" as="geometry" />
        </mxCell>
        <mxCell id="P1x7vm0chefwzOuEZskG-152" value="Cost" style="text;html=1;strokeColor=none;fillColor=none;align=center;verticalAlign=middle;whiteSpace=wrap;rounded=0;" parent="1" vertex="1">
          <mxGeometry x="425" y="160" width="40" height="20" as="geometry" />
        </mxCell>
        <mxCell id="P1x7vm0chefwzOuEZskG-153" value="100" style="rounded=0;whiteSpace=wrap;html=1;fillColor=#ffe6cc;strokeColor=#d79b00;" parent="1" vertex="1">
          <mxGeometry x="338" y="210" width="37" height="20" as="geometry" />
        </mxCell>
        <mxCell id="P1x7vm0chefwzOuEZskG-154" value="Cost" style="text;html=1;strokeColor=none;fillColor=none;align=center;verticalAlign=middle;whiteSpace=wrap;rounded=0;" parent="1" vertex="1">
          <mxGeometry x="540" y="190" width="40" height="20" as="geometry" />
        </mxCell>
        <mxCell id="P1x7vm0chefwzOuEZskG-155" value="100" style="rounded=0;whiteSpace=wrap;html=1;fillColor=#ffe6cc;strokeColor=#d79b00;" parent="1" vertex="1">
          <mxGeometry x="538" y="210" width="37" height="20" as="geometry" />
        </mxCell>
        <mxCell id="P1x7vm0chefwzOuEZskG-159" value="" style="shape=image;html=1;verticalAlign=top;verticalLabelPosition=bottom;labelBackgroundColor=#ffffff;imageAspect=0;aspect=fixed;image=https://cdn1.iconfinder.com/data/icons/ui-navigation-1/152/close-128.png;strokeColor=#005073;fillColor=#CCFFE6;fontFamily=Courier New;fontSize=10;fontColor=#000000;align=left;" parent="1" vertex="1">
          <mxGeometry x="780" y="463" width="18" height="18" as="geometry" />
        </mxCell>
        <mxCell id="P1x7vm0chefwzOuEZskG-167" value="" style="shape=image;html=1;verticalAlign=top;verticalLabelPosition=bottom;labelBackgroundColor=#ffffff;imageAspect=0;aspect=fixed;image=https://cdn2.iconfinder.com/data/icons/greenline/512/check-128.png;strokeColor=#005073;fillColor=#CCFFE6;fontFamily=Courier New;fontSize=10;fontColor=#000000;align=left;" parent="1" vertex="1">
          <mxGeometry x="508" y="320" width="20" height="20" as="geometry" />
        </mxCell>
        <mxCell id="P1x7vm0chefwzOuEZskG-171" value="" style="shape=image;html=1;verticalAlign=top;verticalLabelPosition=bottom;labelBackgroundColor=#ffffff;imageAspect=0;aspect=fixed;image=https://cdn2.iconfinder.com/data/icons/greenline/512/check-128.png;strokeColor=#005073;fillColor=#CCFFE6;fontFamily=Courier New;fontSize=10;fontColor=#000000;align=left;" parent="1" vertex="1">
          <mxGeometry x="308" y="260" width="20" height="20" as="geometry" />
        </mxCell>
        <mxCell id="P1x7vm0chefwzOuEZskG-172" value="" style="shape=image;html=1;verticalAlign=top;verticalLabelPosition=bottom;labelBackgroundColor=#ffffff;imageAspect=0;aspect=fixed;image=https://cdn2.iconfinder.com/data/icons/greenline/512/check-128.png;strokeColor=#005073;fillColor=#CCFFE6;fontFamily=Courier New;fontSize=10;fontColor=#000000;align=left;" parent="1" vertex="1">
          <mxGeometry x="578" y="260" width="20" height="20" as="geometry" />
        </mxCell>
        <mxCell id="P1x7vm0chefwzOuEZskG-173" value="" style="shape=image;html=1;verticalAlign=top;verticalLabelPosition=bottom;labelBackgroundColor=#ffffff;imageAspect=0;aspect=fixed;image=https://cdn2.iconfinder.com/data/icons/greenline/512/check-128.png;strokeColor=#005073;fillColor=#CCFFE6;fontFamily=Courier New;fontSize=10;fontColor=#000000;align=left;" parent="1" vertex="1">
          <mxGeometry x="578" y="140" width="20" height="20" as="geometry" />
        </mxCell>
        <mxCell id="P1x7vm0chefwzOuEZskG-174" value="" style="shape=image;html=1;verticalAlign=top;verticalLabelPosition=bottom;labelBackgroundColor=#ffffff;imageAspect=0;aspect=fixed;image=https://cdn2.iconfinder.com/data/icons/greenline/512/check-128.png;strokeColor=#005073;fillColor=#CCFFE6;fontFamily=Courier New;fontSize=10;fontColor=#000000;align=left;" parent="1" vertex="1">
          <mxGeometry x="308" y="140" width="20" height="20" as="geometry" />
        </mxCell>
        <mxCell id="P1x7vm0chefwzOuEZskG-176" value="" style="shape=image;html=1;verticalAlign=top;verticalLabelPosition=bottom;labelBackgroundColor=#ffffff;imageAspect=0;aspect=fixed;image=https://cdn2.iconfinder.com/data/icons/greenline/512/check-128.png;strokeColor=#005073;fillColor=#CCFFE6;fontFamily=Courier New;fontSize=10;fontColor=#000000;align=left;" parent="1" vertex="1">
          <mxGeometry x="508" y="103" width="20" height="20" as="geometry" />
        </mxCell>
        <mxCell id="P1x7vm0chefwzOuEZskG-177" value="" style="shape=image;html=1;verticalAlign=top;verticalLabelPosition=bottom;labelBackgroundColor=#ffffff;imageAspect=0;aspect=fixed;image=https://cdn2.iconfinder.com/data/icons/greenline/512/check-128.png;strokeColor=#005073;fillColor=#CCFFE6;fontFamily=Courier New;fontSize=10;fontColor=#000000;align=left;" parent="1" vertex="1">
          <mxGeometry x="358" y="103" width="20" height="20" as="geometry" />
        </mxCell>
        <mxCell id="P1x7vm0chefwzOuEZskG-181" value="" style="shape=image;html=1;verticalAlign=top;verticalLabelPosition=bottom;labelBackgroundColor=#ffffff;imageAspect=0;aspect=fixed;image=https://cdn2.iconfinder.com/data/icons/greenline/512/check-128.png;strokeColor=#005073;fillColor=#CCFFE6;fontFamily=Courier New;fontSize=10;fontColor=#000000;align=left;" parent="1" vertex="1">
          <mxGeometry x="838" y="447" width="20" height="20" as="geometry" />
        </mxCell>
        <mxCell id="TJ2ps9Ch07JejQyNEhkn-1" value="" style="shape=image;html=1;verticalAlign=top;verticalLabelPosition=bottom;labelBackgroundColor=#ffffff;imageAspect=0;aspect=fixed;image=https://cdn1.iconfinder.com/data/icons/ui-navigation-1/152/close-128.png;strokeColor=#005073;fillColor=#CCFFE6;fontFamily=Courier New;fontSize=10;fontColor=#000000;align=left;" vertex="1" parent="1">
          <mxGeometry x="350" y="320" width="18" height="18" as="geometry" />
        </mxCell>
      </root>
    </mxGraphModel>
  </diagram>
</mxfile>
